<?xml version="1.0" encoding="utf-8"?>

<svg version="1.1" xmlns="http://www.w3.org/2000/svg" xmlns:xlink="http://www.w3.org/1999/xlink" x="0px" y="0px" viewBox="0 0 1000 1000" 
 xml:space="preserve">

<g>
<g transform="translate(0.000000,503.000000) scale(0.100000,-0.100000)">
<path fill="white" d="M9519.5,4916.3c-212.7-13.7-620.4-70.2-907.2-124.9c-1092.6-212.7-1954.9-583.4-2711.9-1166.7c-374.6-288.8-1354-1348.2-2185.1-2366.6l-107.3-132.7h-868.2c-790.2,0-874.1-3.9-930.6-35.1c-58.5-31.2-1024.3-1168.7-1077-1268.2c-50.7-95.6-9.8-212.7,91.7-265.4c29.3-13.6,312.2-89.7,628.2-167.8c316.1-78,581.4-148.3,591.2-154.1c7.8-7.8-7.8-42.9-35.1-80c-41-54.6-48.8-87.8-48.8-191.2c0-122.9-2-124.9-218.5-487.8c-187.3-312.2-218.5-378.5-226.3-466.3c-17.6-201,167.8-489.7,571.7-893.6c403.9-403.9,692.6-589.2,893.6-571.6c87.8,7.8,154.1,39,468.2,226.3c368.8,218.5,368.8,218.5,495.6,218.5c107.3,0,136.6,7.8,185.3,50.7c33.2,27.3,66.3,41,74.1,33.2c7.8-7.8,78-275.1,156.1-591.2c78-316.1,154.1-599,167.8-628.2c52.7-101.5,169.7-142.4,265.3-91.7c76.1,41,1235,1016.5,1268.2,1069.2c31.2,46.8,35.1,126.8,35.1,928.7v878l132.7,107.3C7232.9-433.4,8317.7,567.5,8594.7,932.3C9092.3,1582,9416.2,2262.9,9644.4,3139c148.3,569.7,255.6,1274,255.6,1689.6V4930l-140.5-3.9C9681.5,4924.1,9574.2,4920.2,9519.5,4916.3z M9441.5,4163.3c-171.7-1207.7-542.4-2167.6-1147.2-2969.5c-388.3-515.1-1793-1742.3-4227.9-3693.3c-70.2-56.6-144.4-101.4-165.8-101.4c-93.6,1.9-325.8,136.6-554.1,320C2876.3-1900.5,2371-1274.3,2369-1067.5c0,54.6,1238.9,1590.1,2085.6,2583.2C5754.1,3039.5,6212.6,3458.9,7018.3,3855c606.8,296.6,1350.1,515.1,2091.5,614.6c374.6,48.8,351.2,50.7,357-23.4C9470.8,4409.1,9459.1,4282.3,9441.5,4163.3z M3266.5,725.5c0-11.7-827.2-1036-887.7-1100.4l-44.9-46.8L1803.2-289c-290.7,72.2-524.8,138.5-522.9,148.3c3.9,9.7,165.8,210.7,362.9,446.8l357,429.2h634.1C2981.7,735.3,3266.5,731.4,3266.5,725.5z M2222.7-1668.4c208.8-316.1,762.9-872.1,1078.9-1078.9l83.9-54.6l-210.7-124.9c-115.1-66.3-218.5-122.9-230.2-122.9c-9.8,0-60.5,25.4-111.2,54.6c-253.6,146.3-780.4,686.8-883.8,905.3l-35.1,70.2l124.9,216.6c68.3,119,126.8,216.6,126.8,216.6C2168.1-1586.4,2193.4-1623.5,2222.7-1668.4z M5705.3-2335.6v-634.1l-429.2-357c-236.1-197.1-437-359-446.8-362.9c-9.8-2-76.1,232.2-148.3,522.9c-117.1,472.1-128.8,532.6-103.4,559.9c56.6,54.6,1098.4,901.4,1114,901.4C5699.4-1703.5,5705.3-1988.3,5705.3-2335.6z"/>
<path fill="white" d="M6622.3,2883.4c-335.6-109.3-577.5-345.3-677-665.3c-46.8-150.2-44.9-444.8,1.9-585.3c103.4-312.2,343.4-550.2,655.6-655.5c140.5-46.8,435.1-48.8,585.3-1.9c415.6,128.8,702.4,517,702.4,948.2c0,173.6-48.8,364.8-128.8,503.4c-70.3,121-243.9,294.6-364.8,364.8C7180.3,2916.5,6846.6,2955.6,6622.3,2883.4z M7162.7,2460c202.9-97.6,323.9-292.7,325.8-526.8c3.9-423.4-409.7-704.3-813.6-554.1c-222.4,83.9-364.8,302.4-364.8,561.9C6312.1,2374.2,6764.7,2649.3,7162.7,2460z"/>
<path fill="white" d="M1243.3-2597.1c-76.1-50.7-245.8-148.3-378.5-216.6C591.7-2960,459-3071.2,353.6-3246.7c-152.2-255.6-218.5-600.9-240-1235L100-4870l364.8,13.7c764.8,27.3,1164.8,132.7,1439.9,378.5c124.9,113.2,179.5,195.1,349.2,522.9c78,148.3,158,294.6,177.5,323.9l35.1,50.7l-160,111.2l-160,111.2l-44.9-56.6c-25.4-29.3-113.2-185.3-195.1-345.3c-83.9-160-185.3-327.8-226.3-374.6c-93.7-105.4-302.4-210.7-501.4-251.7c-183.4-39-638-80-657.5-62.4c-23.4,23.4,29.3,558,70.2,719.9c80,312.2,163.9,409.7,493.6,579.5c236.1,122.9,522.9,296.5,522.9,320c0,13.7-214.6,327.8-220.5,323.9C1385.7-2505.4,1321.3-2548.3,1243.3-2597.1z"/>
</g>
</g>
</svg>